<?xml version="1.0" encoding="UTF-8"?>
<svg version="1.1" xmlns="http://www.w3.org/2000/svg" width="2000" height="1644">
<path d="M0 0 C169.29 0 338.58 0 513 0 C518.60936814 12.34060992 518.60936814 12.34060992 520.26953125 16.74609375 C520.86906616 18.31991821 520.86906616 18.31991821 521.48071289 19.92553711 C522.13994751 21.66395874 522.13994751 21.66395874 522.8125 23.4375 C528.57681864 38.49849427 534.56093692 53.46978202 540.5625 68.4375 C542.66996136 73.69503586 544.77665952 78.95287738 546.8828125 84.2109375 C547.16038769 84.90387783 547.43796288 85.59681816 547.72394943 86.31075668 C555.49542982 105.71460617 563.21547433 125.13893012 570.9375 144.5625 C571.68750562 146.44888487 572.43751581 148.33526792 573.18753052 150.22164917 C577.34912067 160.68876276 581.50998397 171.15616515 585.67052364 181.62369633 C589.56223482 191.41476042 593.45487383 201.20545553 597.34765625 210.99609375 C598.02972939 212.71156812 598.71180235 214.42704257 599.39387512 216.14251709 C600.41268487 218.70491366 601.43149565 221.26730982 602.45031071 223.82970428 C604.82967708 229.81400469 607.20892994 235.79835021 609.58813477 241.78271484 C619.51513165 266.75175548 629.44444812 291.71987304 639.375 316.6875 C639.73735497 317.59854366 640.09970993 318.50958733 640.47304535 319.44823837 C645.98194193 333.2988607 651.49095778 347.14943559 657 361 C662.87506723 375.77080659 668.75009166 390.54163021 674.625 405.3125 C674.9875161 406.2239465 675.3500322 407.13539299 675.72353363 408.07445908 C686.99193394 436.40578723 698.25786364 464.73809686 709.52217102 493.07105255 C720.47108736 520.61067457 731.42210025 548.14946199 742.375 575.6875 C742.73735497 576.59854366 743.09970993 577.50958733 743.47304535 578.44823837 C748.98194193 592.2988607 754.49095778 606.14943559 760 620 C765.87506723 634.77080659 771.75009166 649.54163021 777.625 664.3125 C777.9875161 665.2239465 778.3500322 666.13539299 778.72353363 667.07445908 C789.99193394 695.40578723 801.25786364 723.73809686 812.52217102 752.07105255 C823.47108736 779.61067457 834.42210025 807.14946199 845.375 834.6875 C845.73735497 835.59854366 846.09970993 836.50958733 846.47304535 837.44823837 C851.98194193 851.2988607 857.49095778 865.14943559 863 879 C868.87506723 893.77080659 874.75009166 908.54163021 880.625 923.3125 C880.9875161 924.2239465 881.3500322 925.13539299 881.72353363 926.07445908 C892.99193394 954.40578723 904.25786364 982.73809686 915.52217102 1011.07105255 C926.47108736 1038.61067457 937.42208057 1066.14946982 948.375 1093.6875 C948.73764954 1094.59928009 949.10029907 1095.51106018 949.47393799 1096.45046997 C952.77798505 1104.75754981 956.08206249 1113.06461756 959.38616943 1121.37167358 C964.51017284 1134.25424413 969.63404433 1147.13686714 974.7578125 1160.01953125 C975.11855865 1160.92655289 975.47930481 1161.83357452 975.85098267 1162.76808167 C978.76481168 1170.09430473 981.67863258 1177.42053102 984.592453 1184.74675751 C987.14236065 1191.15799612 989.69227198 1197.56923327 992.2421875 1203.98046875 C992.78324631 1205.34085014 992.78324631 1205.34085014 993.3352356 1206.72871399 C998.09463213 1218.69522897 1002.8541389 1230.66170011 1007.61375427 1242.62812805 C1009.08419561 1246.32505287 1010.55462403 1250.02198281 1012.02503967 1253.71891785 C1012.38858268 1254.63294152 1012.75212568 1255.5469652 1013.12668514 1256.48868656 C1013.86056534 1258.33381666 1014.59444506 1260.17894694 1015.32832432 1262.02407742 C1017.52265806 1267.54107819 1019.71708168 1273.0580432 1021.91156483 1278.57498455 C1030.13880877 1299.2584704 1038.36338612 1319.94301037 1046.5803833 1340.63056946 C1050.00808457 1349.25959134 1053.4387993 1357.8873936 1056.87646484 1366.51245117 C1058.22119792 1369.88713961 1059.56572691 1373.2619093 1060.91015625 1376.63671875 C1061.24114067 1377.46740561 1061.57212509 1378.29809246 1061.91313934 1379.15395164 C1066.45186872 1390.5486029 1070.95122906 1401.95808695 1075.42216492 1413.37950134 C1077.85473631 1419.59211947 1080.30061379 1425.79946975 1082.75029087 1432.0053606 C1084.72940269 1437.02217851 1086.6914165 1442.04523528 1088.6407938 1447.07367611 C1089.83535945 1450.14278101 1091.04626707 1453.20523018 1092.26205635 1456.26598167 C1092.82160145 1457.68451306 1093.37423512 1459.10579251 1093.91950798 1460.52987099 C1094.6623416 1462.46724564 1095.42883234 1464.39347915 1096.20214844 1466.31884766 C1096.83561188 1467.93854965 1096.83561188 1467.93854965 1097.48187256 1469.5909729 C1097.98285461 1470.38595184 1098.48383667 1471.18093079 1099 1472 C1100.65 1472.33 1102.3 1472.66 1104 1473 C1104 986.91 1104 500.82 1104 0 C1203.66 0 1303.32 0 1406 0 C1406 528.66 1406 1057.32 1406 1602 C1223.51 1602 1041.02 1602 853 1602 C845.10572346 1581.35343058 837.24255836 1560.7099781 829.58283997 1539.97754288 C828.35197765 1536.64747643 827.11883175 1533.3182559 825.88574219 1529.98901367 C825.63552307 1529.31343068 825.38530396 1528.63784769 825.12750244 1527.94179249 C824.62142311 1526.5754158 824.11533485 1525.20904242 823.60923767 1523.84267235 C822.85509522 1521.80641369 822.10116924 1519.770075 821.34729004 1517.73371887 C816.66488846 1505.08708989 811.9608527 1492.4485575 807.25 1479.8125 C806.47444518 1477.73185275 805.6988918 1475.65120496 804.92333984 1473.57055664 C803.38591458 1469.44622477 801.84827982 1465.32197107 800.31054688 1461.19775391 C796.76898994 1451.69873059 793.23040578 1442.19859968 789.69152832 1432.69857788 C787.71113408 1427.38234234 785.73055807 1422.06617451 783.75 1416.75 C782.95833246 1414.62500033 782.16666579 1412.50000033 781.375 1410.375 C780.983125 1409.323125 780.59125 1408.27125 780.1875 1407.1875 C768.90625 1376.90625 768.90625 1376.90625 757.625 1346.625 C757.23310989 1345.57308472 756.84121979 1344.52116943 756.43745422 1343.43737793 C755.64593944 1341.31278509 754.85442537 1339.18819199 754.06291199 1337.06359863 C752.08142719 1331.74486691 750.09993016 1326.42613975 748.1184082 1321.10742188 C744.58356168 1311.61929987 741.04879162 1302.13114944 737.51449585 1292.64282227 C728.68059227 1268.926958 719.8429209 1245.21250356 711 1221.5 C701.77040305 1196.75061538 692.5468369 1171.99898916 683.32666016 1147.24609375 C679.78165413 1137.72910886 676.23606014 1128.21234302 672.69052124 1118.69555664 C670.71032443 1113.38037969 668.73016402 1108.06518917 666.75 1102.75 C665.95833351 1100.62499993 665.16666684 1098.49999993 664.375 1096.375 C605.59375 938.59375 605.59375 938.59375 355.625 267.625 C355.23314514 266.57318039 354.84129028 265.52136078 354.43756104 264.43766785 C353.64568742 262.31210966 352.8538173 260.18655017 352.06195068 258.06098938 C350.0859791 252.7570189 348.10994714 247.45307092 346.13378906 242.14916992 C342.53317917 232.48514448 338.93302844 222.82094916 335.33512878 213.15591431 C333.70826435 208.78581349 332.08100227 204.41586076 330.45376587 200.04589844 C329.26387965 196.84978171 328.07467221 193.65341297 326.88549805 190.45703125 C323.10474811 180.29960243 319.30732428 170.14892562 315.47265625 160.01171875 C314.76199167 158.1298213 314.05137838 156.24790447 313.34082031 154.3659668 C312.02141068 150.87183941 310.69566868 147.38020725 309.36621094 143.88989258 C308.78166133 142.3433523 308.19733725 140.79672675 307.61328125 139.25 C307.21170555 138.20394844 307.21170555 138.20394844 306.80201721 137.13676453 C305.72386601 134.2674835 305 132.09435687 305 129 C303.35 129 301.7 129 300 129 C300 615.09 300 1101.18 300 1602 C201 1602 102 1602 0 1602 C0 1073.34 0 544.68 0 0 Z " fill="#000000" transform="translate(21,18)"/>
<path d="M0 0 C0.81855469 0.68707031 1.63710937 1.37414063 2.48046875 2.08203125 C30.16700866 25.9988456 45.82710385 66.55379975 51 102 C51.17587646 103.20084229 51.35175293 104.40168457 51.53295898 105.63891602 C53.10176393 117.11655139 53.35897087 128.49049043 53.3125 140.0625 C53.30976578 141.47890274 53.30976578 141.47890274 53.30697632 142.92391968 C53.25981484 157.45841147 52.7420585 171.68779219 50 186 C49.82839355 186.91362305 49.65678711 187.82724609 49.47998047 188.76855469 C42.32094683 225.68332152 26.2767908 267.7970334 -6 290 C-39.17973555 311.14594172 -76.6622357 316.66480643 -115.375 316.375 C-116.48897156 316.37034729 -117.60294312 316.36569458 -118.75067139 316.36090088 C-163.78918846 316.14063404 -209.88900036 309.17034521 -244.0625 277.5 C-280.81836796 239.31440622 -289.97203329 180.78504812 -289.17739868 130.16017151 C-288.26664109 88.03443016 -274.69117184 41.86821813 -246 10 C-245.25363281 9.15953125 -244.50726562 8.3190625 -243.73828125 7.453125 C-214.58811236 -23.57614569 -167.02803427 -30.62851025 -126.5234375 -31.90234375 C-83.67601759 -32.80138038 -33.9108338 -29.44047906 0 0 Z " fill="#FF4035" transform="translate(1920,1304)"/>
</svg>
